<?xml version="1.0" encoding="UTF-8" standalone="no"?>
<svg xmlns:dc="http://purl.org/dc/elements/1.1/" xmlns:cc="http://creativecommons.org/ns#" xmlns:rdf="http://www.w3.org/1999/02/22-rdf-syntax-ns#" xmlns:svg="http://www.w3.org/2000/svg" xmlns="http://www.w3.org/2000/svg" xmlns:sodipodi="http://sodipodi.sourceforge.net/DTD/sodipodi-0.dtd" xmlns:inkscape="http://www.inkscape.org/namespaces/inkscape" width="64px" height="64px" viewBox="0 0 64.000001 64.000001" id="svg4624" version="1.1" inkscape:version="0.91 r13725" sodipodi:docname="2 data synchronization cloud web mobile computer optimization.svg">
  <defs id="defs4626"/>
  <sodipodi:namedview id="base" pagecolor="#ffffff" bordercolor="#666666" borderopacity="1.0" inkscape:pageopacity="0.0" inkscape:pageshadow="2" inkscape:zoom="5.6568543" inkscape:cx="19.765059" inkscape:cy="42.732694" inkscape:document-units="px" inkscape:current-layer="g8542" showgrid="true" units="px" inkscape:snap-bbox="true" inkscape:bbox-paths="true" inkscape:bbox-nodes="true" inkscape:snap-bbox-edge-midpoints="true" inkscape:snap-bbox-midpoints="true" inkscape:window-width="1366" inkscape:window-height="705" inkscape:window-x="-8" inkscape:window-y="-8" inkscape:window-maximized="1">
    <inkscape:grid type="xygrid" id="grid4632"/>
  </sodipodi:namedview>
  
  <g inkscape:label="Layer 1" inkscape:groupmode="layer" id="layer1" transform="translate(0,-988.36216)">
    <g transform="translate(257,559.99996)" id="g8542">
      <path style="color:#000000;font-style:normal;font-variant:normal;font-weight:normal;font-stretch:normal;font-size:medium;line-height:normal;font-family:sans-serif;text-indent:0;text-align:start;text-decoration:none;text-decoration-line:none;text-decoration-style:solid;text-decoration-color:#000000;letter-spacing:normal;word-spacing:normal;text-transform:none;direction:ltr;block-progression:tb;writing-mode:lr-tb;baseline-shift:baseline;text-anchor:start;white-space:normal;clip-rule:nonzero;display:inline;overflow:visible;visibility:visible;opacity:1;isolation:auto;mix-blend-mode:normal;color-interpolation:sRGB;color-interpolation-filters:linearRGB;solid-color:#000000;solid-opacity:1;fill:#000000;fill-opacity:1;fill-rule:evenodd;stroke:none;stroke-width:1px;stroke-linecap:butt;stroke-linejoin:miter;stroke-miterlimit:4;stroke-dasharray:none;stroke-dashoffset:0;stroke-opacity:1;color-rendering:auto;image-rendering:auto;shape-rendering:auto;text-rendering:auto;enable-background:accumulate" d="M 14.964844 8.0214844 C 14.899656 8.0141594 14.846056 8.0207906 14.806641 8.0253906 C 14.759441 8.0313906 14.751769 8.0343625 14.730469 8.0390625 A 0.50005 0.50005 0 0 0 14.636719 8.0449219 L 13.634766 8.2050781 A 0.50005 0.50005 0 0 0 13.583984 8.2148438 C 13.193284 8.3195738 12.944501 8.7382056 13.050781 9.1347656 L 13.314453 10.121094 C 13.157763 10.224214 13.009941 10.336987 12.869141 10.460938 L 11.986328 9.953125 C 11.637228 9.751825 11.165461 9.8781256 10.962891 10.228516 A 0.50005 0.50005 0 0 0 10.960938 10.228516 L 10.457031 11.099609 C 10.254021 11.451099 10.377232 11.922033 10.732422 12.126953 L 11.611328 12.634766 C 11.573428 12.819556 11.550663 13.005099 11.539062 13.193359 L 10.558594 13.455078 A 0.50005 0.50005 0 0 0 10.556641 13.455078 C 10.165961 13.559778 9.9191406 13.97846 10.025391 14.375 A 0.50005 0.50005 0 0 0 10.025391 14.376953 L 10.091797 14.619141 L 10.220703 15.103516 L 10.285156 15.345703 A 0.50005 0.50005 0 0 0 10.285156 15.349609 C 10.391346 15.745819 10.808961 15.987589 11.207031 15.880859 L 12.189453 15.617188 C 12.293683 15.774367 12.40603 15.923433 12.53125 16.064453 L 12.023438 16.943359 C 11.820237 17.295189 11.942135 17.765653 12.296875 17.970703 L 13.169922 18.474609 C 13.521582 18.677419 13.992156 18.555912 14.197266 18.201172 A 0.50005 0.50005 0 0 0 14.197266 18.199219 L 14.707031 17.318359 C 14.891341 17.355659 15.075962 17.381378 15.263672 17.392578 L 15.525391 18.375 C 15.631961 18.77264 16.054626 19.009607 16.447266 18.904297 L 17.417969 18.644531 C 17.808709 18.539801 18.057512 18.121239 17.951172 17.724609 L 17.689453 16.744141 C 17.845903 16.640131 17.992413 16.525211 18.132812 16.400391 L 19.015625 16.908203 C 19.371215 17.113243 19.839429 16.985502 20.042969 16.632812 A 0.50005 0.50005 0 0 0 20.042969 16.630859 L 20.544922 15.761719 L 20.542969 15.761719 C 20.746169 15.409889 20.624271 14.939435 20.269531 14.734375 L 19.390625 14.226562 C 19.427625 14.042343 19.450038 13.857492 19.460938 13.669922 L 20.443359 13.404297 C 20.834069 13.299587 21.082932 12.881015 20.976562 12.484375 A 0.50005 0.50005 0 0 0 20.976562 12.482422 L 20.910156 12.240234 L 20.847656 12 A 0.50005 0.50005 0 0 0 20.845703 11.996094 L 20.78125 11.753906 L 20.716797 11.513672 A 0.50005 0.50005 0 0 0 20.716797 11.511719 C 20.610187 11.113989 20.187522 10.875249 19.794922 10.980469 L 18.8125 11.244141 C 18.7091 11.086421 18.595183 10.938555 18.470703 10.796875 L 18.978516 9.9160156 C 19.181496 9.5645356 19.058325 9.0936019 18.703125 8.8886719 L 17.832031 8.3867188 C 17.476261 8.1812387 17.008188 8.3095194 16.804688 8.6621094 L 16.296875 9.5410156 C 16.112325 9.5033156 15.926281 9.48035 15.738281 9.46875 L 15.476562 8.4863281 L 15.488281 8.546875 C 15.468381 8.402245 15.360606 8.1928763 15.191406 8.0976562 C 15.106801 8.0500563 15.030031 8.0288094 14.964844 8.0214844 z M 38.158203 8.9296875 C 36.694703 8.9296875 35.361908 9.6361975 34.423828 10.742188 C 33.974158 10.516597 33.508863 10.305048 33.001953 10.304688 C 31.317813 10.305237 29.971363 11.615296 29.814453 13.259766 C 29.611013 13.199166 29.435823 13.054907 29.220703 13.054688 C 28.314793 13.055128 27.598576 13.666206 27.259766 14.478516 C 25.586776 14.608986 24.251953 15.973667 24.251953 17.679688 C 24.251953 19.471617 25.710023 20.929688 27.501953 20.929688 L 29.996094 20.929688 L 34 20.929688 L 34 25 L 14.667969 25 C 13.406499 25 12.376953 26.034255 12.376953 27.296875 L 12.376953 37.5 L 11 37.5 L 11 31.429688 A 0.50004997 0.50004997 0 0 0 10.5 30.929688 L 3.5 30.929688 A 0.50004997 0.50004997 0 0 0 3 31.429688 L 3 43.429688 A 0.50004997 0.50004997 0 0 0 3.5 43.929688 L 10.5 43.929688 A 0.50004997 0.50004997 0 0 0 11 43.429688 L 11 38.5 L 12.376953 38.5 L 12.376953 51.029297 L 9.8769531 51.029297 A 0.50005 0.50005 0 0 0 9.3769531 51.529297 C 9.3769531 54.552297 11.826309 57 14.849609 57 L 53.904297 57 C 56.927597 57 59.376953 54.552297 59.376953 51.529297 A 0.50005 0.50005 0 0 0 58.876953 51.029297 L 56.376953 51.029297 L 56.376953 37.929688 L 58.5 37.929688 A 0.50005 0.50005 0 1 0 58.5 36.929688 L 57.853516 36.929688 C 57.314976 36.929688 56.884766 36.498547 56.884766 35.929688 L 56.884766 35.755859 L 56.884766 34.929688 L 62.925781 34.929688 C 63.528691 34.929688 64 34.410883 64 33.820312 L 64 22.039062 C 64 21.448492 63.528691 20.929688 62.925781 20.929688 L 46.074219 20.929688 C 45.471309 20.929688 45 21.448492 45 22.039062 L 45 25 L 35 25 L 35 20.929688 L 38.759766 20.929688 L 41.251953 20.929688 C 43.043883 20.929688 44.501953 19.471617 44.501953 17.679688 C 44.501953 16.536907 43.851994 15.602441 42.958984 15.025391 C 43.045984 14.654481 43.126773 14.280078 43.126953 13.898438 C 43.126703 11.160548 40.896073 8.9299075 38.158203 8.9296875 z M 14.466797 8.9726562 C 14.537397 9.0130562 14.525699 8.9756812 14.574219 8.9882812 L 14.576172 8.9921875 L 14.466797 8.9726562 z M 14.595703 9.0644531 L 14.857422 10.041016 A 0.50005 0.50005 0 0 0 15.361328 10.412109 C 15.717628 10.396109 16.074183 10.442711 16.414062 10.550781 A 0.50005 0.50005 0 0 0 17 10.324219 L 17.546875 9.3769531 L 17.988281 9.6308594 L 17.443359 10.578125 A 0.50005 0.50005 0 0 0 17.537109 11.195312 C 17.799789 11.437063 18.018811 11.723316 18.181641 12.041016 A 0.50005 0.50005 0 0 0 18.755859 12.294922 L 19.814453 12.011719 A 0.50005 0.50005 0 0 0 19.814453 12.015625 L 19.880859 12.255859 L 19.943359 12.498047 A 0.50005 0.50005 0 0 0 19.945312 12.501953 L 18.886719 12.787109 A 0.50005 0.50005 0 0 0 18.517578 13.294922 C 18.534978 13.650982 18.489483 14.007516 18.382812 14.347656 A 0.50005 0.50005 0 0 0 18.609375 14.929688 L 19.554688 15.474609 L 19.298828 15.917969 L 18.349609 15.371094 A 0.50005 0.50005 0 0 0 17.730469 15.46875 C 17.490969 15.73235 17.206405 15.950514 16.890625 16.115234 A 0.50005 0.50005 0 0 0 16.638672 16.6875 L 16.921875 17.742188 L 16.427734 17.875 L 16.144531 16.818359 A 0.50005 0.50005 0 0 0 15.638672 16.447266 C 15.282502 16.463966 14.925948 16.417957 14.585938 16.310547 A 0.50005 0.50005 0 0 0 14.001953 16.537109 L 13.457031 17.484375 L 13.013672 17.228516 L 13.560547 16.28125 A 0.50005 0.50005 0 0 0 13.464844 15.660156 C 13.201054 15.420026 12.980906 15.134879 12.816406 14.818359 A 0.50005 0.50005 0 0 0 12.242188 14.566406 L 11.1875 14.851562 L 11.1875 14.849609 A 0.50005 0.50005 0 0 0 11.1875 14.847656 L 11.056641 14.359375 A 0.50005 0.50005 0 0 0 11.056641 14.357422 L 12.111328 14.076172 A 0.50005 0.50005 0 0 0 12.482422 13.570312 C 12.466422 13.214002 12.513024 12.857448 12.621094 12.517578 A 0.50005 0.50005 0 0 0 12.394531 11.933594 L 11.447266 11.386719 L 11.703125 10.945312 L 12.650391 11.488281 A 0.50005 0.50005 0 0 0 13.267578 11.394531 C 13.508698 11.132041 13.794388 10.91303 14.111328 10.75 A 0.50005 0.50005 0 0 0 14.365234 10.175781 L 14.087891 9.1445312 L 14.595703 9.0644531 z M 38.158203 9.9296875 C 40.355693 9.9298575 42.126753 11.700918 42.126953 13.898438 C 42.126773 14.290968 42.067955 14.681121 41.953125 15.056641 A 0.50005 0.50005 0 0 0 42.216797 15.654297 C 42.977537 16.015557 43.501953 16.775168 43.501953 17.679688 C 43.501953 18.934748 42.507003 19.929688 41.251953 19.929688 L 38.759766 19.929688 L 36.011719 19.929688 L 36.011719 18.429688 L 37.177734 18.429688 A 0.50005 0.50005 0 0 0 37.517578 17.564453 L 34.841797 15.064453 A 0.50005 0.50005 0 0 0 34.474609 14.929688 A 0.50005 0.50005 0 0 0 34.154297 15.068359 L 31.533203 17.568359 A 0.50005 0.50005 0 0 0 31.876953 18.429688 L 33.044922 18.429688 L 33.044922 19.929688 L 29.996094 19.929688 L 27.501953 19.929688 C 26.246903 19.929688 25.251953 18.934748 25.251953 17.679688 C 25.251953 16.424737 26.246623 15.429688 27.501953 15.429688 L 27.537109 15.429688 A 0.50005 0.50005 0 0 0 28.027344 15.03125 C 28.143674 14.46104 28.638693 14.054968 29.220703 14.054688 C 29.493393 14.054967 29.756313 14.147896 29.970703 14.316406 A 0.50005 0.50005 0 0 0 30.775391 13.851562 C 30.761391 13.753463 30.754906 13.654088 30.753906 13.554688 C 30.753716 12.306247 31.753623 11.305097 33.001953 11.304688 C 33.451703 11.305007 33.889529 11.440769 34.261719 11.693359 A 0.50005 0.50005 0 0 0 34.949219 11.572266 C 35.694919 10.541396 36.886973 9.9296875 38.158203 9.9296875 z M 15.548828 10.917969 L 15.548828 10.919922 A 0.50005 0.50005 0 0 0 15.449219 10.935547 A 0.50005 0.50005 0 0 0 15.445312 10.9375 C 15.245583 10.9415 15.044903 10.950453 14.851562 11.001953 C 13.633453 11.329403 12.842932 12.521724 13.013672 13.771484 C 13.022672 13.834884 13.033075 13.897578 13.046875 13.960938 C 13.053875 13.996337 13.060106 14.029694 13.066406 14.058594 A 0.50005 0.50005 0 0 0 13.074219 14.085938 C 13.082219 14.115837 13.092516 14.146388 13.103516 14.179688 L 13.101562 14.179688 C 13.123263 14.246488 13.148581 14.312103 13.175781 14.376953 C 13.175781 14.376953 13.177734 14.378906 13.177734 14.378906 C 13.654154 15.546846 14.933314 16.184535 16.152344 15.859375 A 0.50005 0.50005 0 0 0 16.154297 15.859375 C 17.372497 15.530535 18.160971 14.337821 17.988281 13.087891 C 17.985281 13.063991 17.982262 13.036553 17.976562 13.001953 A 0.50005 0.50005 0 0 0 17.976562 12.992188 C 17.964262 12.920687 17.947987 12.849017 17.929688 12.779297 A 0.50005 0.50005 0 0 0 17.927734 12.773438 C 17.906634 12.697238 17.881616 12.622298 17.853516 12.548828 A 0.50005 0.50005 0 0 0 17.851562 12.541016 L 17.845703 12.529297 A 0.50005 0.50005 0 0 0 17.845703 12.527344 C 17.840703 12.515544 17.833672 12.497969 17.826172 12.480469 C 17.490792 11.658709 16.725228 11.139939 15.861328 11.005859 A 0.50005 0.50005 0 0 0 15.736328 10.943359 L 15.732422 10.962891 C 15.683822 10.957891 15.646916 10.919869 15.597656 10.917969 A 0.50005 0.50005 0 0 0 15.548828 10.917969 z M 15.558594 11.919922 C 15.558594 11.919922 15.560547 11.919922 15.560547 11.919922 C 16.153377 11.944622 16.676121 12.309865 16.900391 12.859375 A 0.50005 0.50005 0 0 0 16.90625 12.876953 C 16.90825 12.880953 16.912269 12.889397 16.917969 12.904297 L 16.923828 12.916016 C 16.939428 12.957716 16.953044 13.000409 16.964844 13.042969 C 16.975044 13.082669 16.983334 13.124073 16.990234 13.164062 C 16.992234 13.177262 16.993094 13.191944 16.996094 13.214844 A 0.50005 0.50005 0 0 0 16.998047 13.224609 C 17.102817 13.982929 16.633211 14.694271 15.894531 14.894531 C 15.153811 15.092101 14.390292 14.712123 14.101562 14.001953 A 0.50005 0.50005 0 0 0 14.099609 13.994141 C 14.082409 13.953541 14.066434 13.913144 14.052734 13.871094 A 0.50005 0.50005 0 0 0 14.052734 13.869141 C 14.047734 13.854241 14.042309 13.837159 14.037109 13.818359 C 14.037109 13.818359 14.037109 13.816406 14.037109 13.816406 C 14.033109 13.799406 14.030344 13.780978 14.027344 13.767578 A 0.50005 0.50005 0 0 0 14.025391 13.748047 C 14.017391 13.710647 14.009306 13.673656 14.003906 13.634766 C 13.900316 12.876556 14.370755 12.16817 15.109375 11.96875 C 15.255705 11.92975 15.407354 11.913922 15.558594 11.919922 z M 5.4785156 15.939453 A 0.50005 0.50005 0 0 0 5.390625 15.957031 L 4.2246094 16.269531 C 3.8069394 16.381461 3.54274 16.82651 3.65625 17.25 L 3.9902344 18.494141 C 3.7618644 18.639181 3.5479163 18.802475 3.3476562 18.984375 L 2.234375 18.345703 C 1.861165 18.130233 1.357055 18.262199 1.140625 18.636719 L 0.53710938 19.683594 C 0.32029937 20.059094 0.448715 20.560457 0.828125 20.779297 L 1.9414062 21.421875 C 1.8829062 21.686625 1.8463144 21.953749 1.8339844 22.224609 L 0.59570312 22.556641 C 0.17807313 22.668551 -0.088079375 23.113649 0.025390625 23.537109 A 0.50005 0.50005 0 0 0 0.02734375 23.539062 L 0.10546875 23.830078 L 0.26171875 24.412109 L 0.33789062 24.703125 A 0.50005 0.50005 0 0 0 0.33984375 24.705078 C 0.45323375 25.128228 0.89725562 25.387428 1.3222656 25.273438 A 0.50005 0.50005 0 0 0 1.3242188 25.273438 L 2.5644531 24.939453 C 2.7108331 25.167933 2.8733006 25.381991 3.0566406 25.582031 L 2.4140625 26.693359 C 2.1971025 27.069129 2.3280612 27.570092 2.7070312 27.789062 L 3.7539062 28.394531 C 4.1296563 28.611481 4.6306694 28.480433 4.8496094 28.101562 L 5.4921875 26.988281 C 5.7569375 27.046181 6.0241619 27.08198 6.2949219 27.09375 L 6.625 28.333984 A 0.50005 0.50005 0 0 0 6.6269531 28.335938 C 6.7407231 28.760508 7.189825 29.012921 7.609375 28.900391 L 8.7753906 28.587891 C 9.1930506 28.475971 9.45736 28.030982 9.34375 27.607422 L 9.0117188 26.367188 C 9.2395887 26.220757 9.4528637 26.056257 9.6523438 25.873047 L 10.767578 26.515625 C 11.147268 26.733435 11.644208 26.596623 11.861328 26.220703 A 0.50005 0.50005 0 0 0 11.863281 26.220703 L 12.464844 25.175781 L 12.462891 25.175781 C 12.679861 24.800011 12.550785 24.299038 12.171875 24.080078 L 11.060547 23.4375 C 11.118047 23.17245 11.152752 22.905756 11.164062 22.634766 L 12.404297 22.300781 C 12.821957 22.188861 13.086236 21.743863 12.972656 21.320312 A 0.50005 0.50005 0 0 0 12.972656 21.318359 L 12.894531 21.029297 L 12.818359 20.738281 A 0.50005 0.50005 0 0 0 12.816406 20.734375 L 12.738281 20.445312 L 12.662109 20.154297 A 0.50005 0.50005 0 0 0 12.660156 20.152344 C 12.546346 19.727684 12.097224 19.473507 11.677734 19.585938 A 0.50005 0.50005 0 0 0 11.675781 19.585938 L 10.4375 19.919922 C 10.29192 19.689982 10.128222 19.474967 9.9453125 19.273438 L 10.585938 18.164062 C 10.802728 17.788572 10.672439 17.287199 10.292969 17.068359 L 9.2460938 16.462891 C 8.8661537 16.243511 8.3678906 16.381293 8.1503906 16.757812 L 7.5078125 17.871094 C 7.2428725 17.812594 6.9761181 17.777895 6.7050781 17.765625 L 6.375 16.523438 L 6.3867188 16.583984 C 6.3645188 16.422654 6.26933 16.25407 6.15625 16.15625 C 6.04317 16.05845 5.9310363 16.018654 5.8476562 15.996094 C 5.7670562 15.974294 5.7086912 15.969344 5.6757812 15.964844 A 0.50005 0.50005 0 0 0 5.671875 15.962891 C 5.671875 15.962891 5.6699219 15.962891 5.6699219 15.962891 A 0.50005 0.50005 0 0 0 5.5292969 15.939453 A 0.50005 0.50005 0 0 0 5.4785156 15.939453 z M 34.503906 16.117188 L 35.910156 17.429688 L 35.511719 17.429688 A 0.50005 0.50005 0 0 0 35.011719 17.929688 L 35.011719 19.929688 L 34.044922 19.929688 L 34.044922 17.929688 A 0.50005 0.50005 0 0 0 33.544922 17.429688 L 33.126953 17.429688 L 34.503906 16.117188 z M 5.4589844 16.972656 L 5.8242188 18.337891 A 0.50005 0.50005 0 0 0 6.3300781 18.708984 C 6.7693081 18.689184 7.2079831 18.747579 7.6269531 18.880859 A 0.50005 0.50005 0 0 0 8.2109375 18.654297 L 8.9179688 17.427734 L 9.6210938 17.833984 L 8.9160156 19.056641 A 0.50005 0.50005 0 0 0 9.0117188 19.673828 C 9.3355388 19.971848 9.6039575 20.325157 9.8046875 20.716797 A 0.50005 0.50005 0 0 0 10.378906 20.970703 L 11.746094 20.603516 L 11.771484 20.701172 A 0.50005 0.50005 0 0 0 11.771484 20.705078 L 11.851562 20.996094 L 11.927734 21.285156 A 0.50005 0.50005 0 0 0 11.927734 21.289062 L 11.955078 21.386719 L 10.587891 21.753906 A 0.50005 0.50005 0 0 0 10.21875 22.261719 C 10.24015 22.700639 10.184254 23.139294 10.052734 23.558594 A 0.50005 0.50005 0 0 0 10.279297 24.140625 L 11.5 24.847656 L 11.09375 25.550781 L 9.8671875 24.84375 A 0.50005 0.50005 0 0 0 9.2480469 24.941406 C 8.9527969 25.266366 8.6021706 25.537174 8.2128906 25.740234 A 0.50005 0.50005 0 0 0 7.9609375 26.3125 L 8.3261719 27.673828 L 7.5410156 27.884766 L 7.1757812 26.519531 A 0.50005 0.50005 0 0 0 6.6699219 26.148438 C 6.2308619 26.169038 5.7921869 26.112839 5.3730469 25.980469 A 0.50005 0.50005 0 0 0 4.7890625 26.207031 L 4.0839844 27.429688 L 3.3789062 27.023438 L 4.0859375 25.798828 A 0.50005 0.50005 0 0 0 3.9902344 25.179688 C 3.6650444 24.883658 3.3941962 24.530825 3.1914062 24.140625 A 0.50005 0.50005 0 0 0 2.6171875 23.888672 L 1.2539062 24.255859 L 1.2285156 24.15625 A 0.50005 0.50005 0 0 0 1.2285156 24.154297 L 1.0722656 23.570312 A 0.50005 0.50005 0 0 0 1.0722656 23.568359 L 1.0449219 23.470703 L 2.4082031 23.107422 A 0.50005 0.50005 0 0 0 2.7773438 22.601562 C 2.7575437 22.162343 2.8159388 21.721734 2.9492188 21.302734 A 0.50005 0.50005 0 0 0 2.7226562 20.71875 L 1.5 20.013672 L 1.90625 19.310547 L 3.1289062 20.013672 A 0.50005 0.50005 0 0 0 3.7460938 19.917969 C 4.0433437 19.594379 4.3963894 19.32598 4.7871094 19.125 A 0.50005 0.50005 0 0 0 5.0410156 18.550781 L 4.6738281 17.183594 L 5.4589844 16.972656 z M 6.5625 19.515625 L 6.5625 19.517578 A 0.50005 0.50005 0 0 0 6.4648438 19.533203 A 0.50005 0.50005 0 0 0 6.4609375 19.535156 C 6.2209575 19.538156 5.9801569 19.551481 5.7480469 19.613281 A 0.50005 0.50005 0 0 0 5.7460938 19.613281 C 4.3324637 19.993281 3.4171044 21.373879 3.6152344 22.824219 C 3.6254344 22.897919 3.6382969 22.971542 3.6542969 23.044922 C 3.6612969 23.084522 3.6693875 23.126122 3.6796875 23.169922 A 0.50005 0.50005 0 0 0 3.6855469 23.189453 C 3.6968469 23.229753 3.7065437 23.262162 3.7148438 23.289062 A 0.50005 0.50005 0 0 0 3.7167969 23.296875 C 3.7426969 23.376875 3.7720875 23.456053 3.8046875 23.533203 C 3.8046875 23.533203 3.8066406 23.535156 3.8066406 23.535156 C 4.3607006 24.888186 5.8424594 25.625027 7.2558594 25.248047 A 0.50005 0.50005 0 0 0 7.2578125 25.248047 C 8.6708825 24.866607 9.5859988 23.484966 9.3867188 22.035156 C 9.3827188 21.999956 9.3787469 21.965548 9.3730469 21.929688 A 0.50005 0.50005 0 0 0 9.3710938 21.921875 C 9.3568938 21.839475 9.3397594 21.757191 9.3183594 21.675781 A 0.50005 0.50005 0 0 0 9.3164062 21.667969 C 9.2919063 21.579669 9.2627688 21.492973 9.2304688 21.408203 A 0.50005 0.50005 0 0 0 9.2285156 21.402344 L 9.2226562 21.386719 A 0.50005 0.50005 0 0 0 9.2207031 21.384766 C 9.2117031 21.362266 9.2045656 21.343272 9.1972656 21.326172 L 9.1953125 21.324219 C 8.7633225 20.268709 7.7530613 19.560795 6.6132812 19.515625 A 0.50005 0.50005 0 0 0 6.5625 19.515625 z M 6.5722656 20.513672 L 6.5722656 20.515625 C 6.5722656 20.515625 6.5742188 20.515625 6.5742188 20.515625 C 7.3249488 20.546125 7.9875144 21.011241 8.2714844 21.707031 A 0.50005 0.50005 0 0 0 8.2753906 21.714844 C 8.2833906 21.733444 8.2880688 21.749719 8.2929688 21.761719 L 8.2929688 21.757812 L 8.2988281 21.773438 C 8.3194281 21.827938 8.3362625 21.8821 8.3515625 21.9375 L 8.3515625 21.931641 C 8.3655625 21.984641 8.3753656 22.037367 8.3847656 22.091797 C 8.3877656 22.110997 8.3905781 22.130291 8.3925781 22.150391 A 0.50005 0.50005 0 0 0 8.3945312 22.169922 C 8.5270112 23.128862 7.9322369 24.02821 6.9980469 24.28125 C 6.0615269 24.53104 5.0955088 24.050244 4.7304688 23.152344 A 0.50005 0.50005 0 0 0 4.7265625 23.144531 C 4.7057625 23.095231 4.6865219 23.044631 4.6699219 22.994141 L 4.6679688 22.986328 C 4.6599687 22.959028 4.6532375 22.935169 4.6484375 22.917969 C 4.6434375 22.896469 4.6394656 22.875009 4.6347656 22.849609 A 0.50005 0.50005 0 0 0 4.6308594 22.830078 C 4.6204594 22.782478 4.6122687 22.734477 4.6054688 22.685547 C 4.4755187 21.726947 5.0714494 20.829305 6.0058594 20.578125 C 6.1905594 20.528925 6.3815356 20.506372 6.5722656 20.513672 z M 46.074219 21.929688 L 62.925781 21.929688 C 62.959381 21.929688 63 21.954493 63 22.039062 L 63 33.820312 C 63 33.904913 62.959381 33.929688 62.925781 33.929688 L 56.474609 33.929688 A 0.50004997 0.50004997 0 0 0 56.376953 33.921875 A 0.50004997 0.50004997 0 0 0 56.289062 33.929688 L 52.701172 33.929688 A 0.50004997 0.50004997 0 0 0 52.603516 33.921875 A 0.50004997 0.50004997 0 0 0 52.515625 33.929688 L 46.074219 33.929688 C 46.040619 33.929688 46 33.904892 46 33.820312 L 46 22.039062 C 46 21.954462 46.040619 21.929688 46.074219 21.929688 z M 47.5 22.929688 A 0.50004997 0.50004997 0 0 0 47 23.429688 L 47 31.429688 A 0.50004997 0.50004997 0 0 0 47.5 31.929688 L 61.5 31.929688 A 0.50004997 0.50004997 0 0 0 62 31.429688 L 62 23.429688 A 0.50004997 0.50004997 0 0 0 61.5 22.929688 L 47.5 22.929688 z M 48 23.929688 L 61 23.929688 L 61 30.929688 L 48 30.929688 L 48 23.929688 z M 14.667969 26 L 34 26 L 34 28.015625 L 15.876953 28.015625 A 0.50005 0.50005 0 0 0 15.376953 28.515625 L 15.376953 37.5 L 13.376953 37.5 L 13.376953 27.296875 C 13.376953 26.569705 13.944299 26 14.667969 26 z M 35 26 L 45 26 L 45 28.015625 L 35 28.015625 L 35 26 z M 16.376953 29.015625 L 34 29.015625 L 34 30.021484 C 33.645956 30.040494 33.291095 30.074649 32.939453 30.138672 C 31.896353 30.328592 30.873844 30.717769 29.927734 31.318359 C 26.485664 33.503392 25.146049 37.795051 26.572266 41.5 L 19.376953 41.5 L 19.376953 38 A 0.50005 0.50005 0 0 0 18.876953 37.5 L 16.376953 37.5 L 16.376953 29.015625 z M 35 29.015625 L 45 29.015625 L 45 33.820312 C 45 34.410883 45.471309 34.929688 46.074219 34.929688 L 52.111328 34.929688 L 52.111328 35.755859 A 0.50004997 0.50004997 0 0 0 52.111328 35.763672 L 52.115234 35.929688 C 52.115234 36.498547 51.685024 36.929688 51.146484 36.929688 L 50.5 36.929688 A 0.50005 0.50005 0 1 0 50.5 37.929688 L 52.376953 37.929688 L 52.376953 38.929688 L 47.376953 38.929688 L 47.376953 37 A 0.50005 0.50005 0 0 0 46.876953 36.5 L 42.695312 36.5 C 42.447673 35.458498 41.999952 34.448763 41.339844 33.529297 C 39.80758 31.395003 37.450335 30.191246 35 30.033203 L 35 29.015625 z M 19.492188 29.929688 A 0.50005 0.50005 0 0 0 19.146484 30.076172 L 18.152344 31.072266 A 0.50005 0.50005 0 1 0 18.859375 31.779297 L 19 31.638672 L 19 33.792969 A 0.50005 0.50005 0 1 0 20 33.792969 L 20 31.638672 L 20.140625 31.779297 A 0.50005 0.50005 0 1 0 20.847656 31.072266 L 19.853516 30.076172 A 0.50005 0.50005 0 0 0 19.492188 29.929688 z M 34.507812 30.998047 C 36.819155 31.012141 39.083113 32.099647 40.527344 34.111328 C 42.838124 37.330008 42.23796 41.780974 39.15625 44.271484 L 39.785156 45.048828 C 42.111537 43.168739 43.182199 40.289491 42.865234 37.5 L 46.376953 37.5 L 46.376953 39.429688 A 0.50005 0.50005 0 0 0 46.876953 39.929688 L 52.376953 39.929688 L 52.376953 48.015625 L 16.376953 48.015625 L 16.376953 38.5 L 18.376953 38.5 L 18.376953 42 A 0.50005 0.50005 0 0 0 18.876953 42.5 L 27.027344 42.5 C 27.043006 42.528869 27.05428 42.559132 27.070312 42.587891 C 29.253022 46.503101 34.124933 48.037981 38.158203 46.082031 L 37.720703 45.181641 C 34.155553 46.910571 29.872729 45.560399 27.943359 42.099609 C 26.013989 38.638809 27.117711 34.287592 30.462891 32.164062 C 31.717333 31.367739 33.121007 30.98959 34.507812 30.998047 z M 4 31.929688 L 10 31.929688 L 10 33.929688 L 4 33.929688 L 4 31.929688 z M 34.5 31.929688 C 30.91607 31.929678 28 34.845757 28 38.429688 C 28 42.013607 30.91607 44.929688 34.5 44.929688 C 38.08393 44.929688 41 42.013607 41 38.429688 C 41 34.845757 38.08393 31.929678 34.5 31.929688 z M 54.519531 32.375 A 0.5535714 0.5535714 0 0 0 53.966797 32.929688 A 0.5535714 0.5535714 0 0 0 54.519531 33.482422 A 0.5535714 0.5535714 0 0 0 55.074219 32.929688 A 0.5535714 0.5535714 0 0 0 54.519531 32.375 z M 6.0058594 32.429688 L 6.0058594 33.429688 L 7.9941406 33.429688 L 7.9941406 32.429688 L 6.0058594 32.429688 z M 21.492188 32.929688 A 0.50005 0.50005 0 0 0 21 33.4375 L 21 35.652344 L 20.845703 35.507812 A 0.50005 0.50005 0 0 0 20.482422 35.369141 A 0.50005 0.50005 0 0 0 20.164062 36.240234 L 21.160156 37.166016 A 0.50005 0.50005 0 0 0 21.839844 37.166016 L 22.835938 36.240234 A 0.50026796 0.50026796 0 0 0 22.154297 35.507812 L 22 35.652344 L 22 33.4375 A 0.50005 0.50005 0 0 0 21.492188 32.929688 z M 34.5 32.929688 C 35.773616 32.929683 36.940064 33.364531 37.871094 34.087891 C 37.833094 34.105696 37.794448 34.12012 37.763672 34.169922 C 37.721772 34.237722 37.604536 34.292969 37.503906 34.292969 C 37.403286 34.292969 37.202974 34.404542 37.058594 34.539062 C 36.871074 34.713492 36.752018 34.74702 36.642578 34.65625 C 36.471098 34.51388 36.278618 34.704668 36.398438 34.898438 C 36.436438 34.960238 36.357436 34.982366 36.222656 34.947266 C 36.087856 34.911566 35.879546 34.926316 35.759766 34.978516 C 35.639986 35.030816 35.500109 35.063734 35.449219 35.052734 C 35.398319 35.041934 35.357422 35.090153 35.357422 35.158203 C 35.357422 35.226103 35.247068 35.168783 35.111328 35.033203 C 34.773708 34.695533 34.576643 34.722186 34.132812 35.166016 C 33.720552 35.578236 33.652394 35.833783 33.927734 35.939453 C 34.042404 35.983453 34.147929 35.881321 34.230469 35.644531 C 34.375279 35.229141 34.628658 35.144515 34.523438 35.546875 C 34.473737 35.737085 34.498722 35.78602 34.607422 35.71875 C 34.719212 35.64965 34.715103 35.693686 34.595703 35.884766 C 34.506503 36.027576 34.379067 36.147287 34.310547 36.154297 C 33.765547 36.195597 33.382812 36.426214 33.382812 36.714844 C 33.382812 36.808344 33.32272 36.884766 33.25 36.884766 C 33.1772 36.884766 33.1352 37.015521 33.15625 37.175781 C 33.17715 37.335981 33.122426 37.553013 33.035156 37.658203 C 32.797496 37.944553 32.708909 38.701766 32.886719 38.916016 C 32.970119 39.016646 33.220852 39.133891 33.445312 39.175781 C 33.874352 39.256281 33.994597 39.466079 33.998047 40.136719 C 33.998907 40.330009 34.088446 40.674867 34.197266 40.904297 C 34.367096 41.262127 34.429939 41.303979 34.636719 41.193359 C 34.769219 41.122359 34.906316 40.969819 34.941406 40.855469 C 34.976506 40.741239 35.056251 40.551434 35.119141 40.433594 C 35.182041 40.315774 35.234375 40.082756 35.234375 39.916016 C 35.234375 39.749366 35.355919 39.404481 35.505859 39.150391 C 35.765989 38.709621 35.767839 38.692217 35.537109 38.773438 C 35.375719 38.830238 35.408246 38.773462 35.634766 38.601562 C 35.970606 38.346873 36.103827 37.965651 35.835938 38.025391 C 35.759537 38.042391 35.670172 37.986501 35.638672 37.900391 C 35.592672 37.774641 35.651091 37.772538 35.931641 37.892578 C 36.461691 38.119328 36.568077 38.226571 36.654297 38.619141 C 36.730997 38.970771 37.010613 39.298481 36.945312 38.962891 C 36.896412 38.711071 37.083022 38.242188 37.232422 38.242188 C 37.304822 38.242188 37.49547 38.383171 37.65625 38.556641 C 37.97124 38.896551 38.249793 38.856761 38.132812 38.488281 C 38.083213 38.331761 38.137181 38.237154 38.306641 38.183594 C 38.588881 38.093994 38.709793 37.807863 38.632812 37.408203 C 38.585312 37.161403 38.607504 37.144425 38.833984 37.265625 C 38.997964 37.353825 39.060846 37.357691 39.009766 37.275391 C 38.966166 37.204791 39.049702 37.036071 39.195312 36.900391 C 39.385723 36.723301 39.439146 36.568273 39.384766 36.351562 C 39.347566 36.203352 39.353109 36.088047 39.412109 35.998047 A 5.9737996 5.9737996 0 0 0 39.140625 35.480469 C 39.682374 36.332661 40 37.342452 40 38.429688 C 40 39.108321 39.871985 39.753976 39.648438 40.353516 C 39.521426 40.374748 39.331065 40.492198 39.130859 40.701172 C 38.848419 40.995912 38.802564 41.127563 38.871094 41.439453 C 38.895826 41.55209 38.91631 41.622242 38.939453 41.671875 C 37.940028 43.038999 36.327864 43.929688 34.5 43.929688 C 33.098078 43.929688 31.825579 43.402692 30.855469 42.542969 C 30.898972 42.448209 30.951768 42.361035 31.007812 42.314453 C 31.360103 42.021633 31.992471 41.019018 32.082031 40.611328 C 32.149431 40.304578 32.119826 40.224783 31.910156 40.158203 C 31.770316 40.113803 31.65625 40.005006 31.65625 39.916016 C 31.65625 39.827016 31.474476 39.687259 31.253906 39.605469 C 31.033346 39.523669 30.765683 39.411089 30.658203 39.355469 C 30.620703 39.335969 30.586881 39.325772 30.556641 39.326172 C 30.466041 39.327012 30.401119 39.423454 30.318359 39.652344 C 30.115299 40.213904 30.138199 40.471721 30.417969 40.769531 C 30.640019 41.005861 30.653094 41.116959 30.552734 42.011719 C 30.541765 42.109394 30.544545 42.156897 30.537109 42.242188 C 29.586421 41.254136 29 39.9131 29 38.429688 C 29 38.328982 29.010314 38.230212 29.015625 38.130859 C 29.309694 38.52312 29.662401 38.889923 29.941406 39.035156 C 30.103716 39.119856 30.264908 39.162469 30.298828 39.130859 C 30.332728 39.099159 30.293491 39.048481 30.212891 39.019531 C 30.131491 38.990531 30.093976 38.893394 30.128906 38.802734 C 30.168506 38.699054 30.107607 38.64461 29.966797 38.65625 C 29.818467 38.66855 29.742188 38.590934 29.742188 38.427734 C 29.742188 38.239364 29.823401 38.178547 30.082031 38.185547 C 30.272081 38.188547 30.421875 38.124652 30.421875 38.039062 C 30.421875 37.830042 30.965281 37.257754 31.175781 37.246094 C 31.301011 37.238094 31.306359 37.219228 31.193359 37.173828 C 30.888559 37.050828 31.037603 36.85872 31.376953 36.9375 C 31.628713 36.9958 31.66857 36.983525 31.53125 36.890625 C 31.4294 36.821925 31.400254 36.763672 31.464844 36.763672 C 31.529344 36.762822 31.39036 36.572847 31.15625 36.341797 C 30.70714 35.898937 30.544922 35.880981 30.544922 36.275391 C 30.544922 36.562781 30.426159 36.577848 30.105469 36.330078 C 29.888029 36.162098 29.884723 36.130704 30.064453 35.990234 C 30.173333 35.905134 30.301199 35.711044 30.349609 35.558594 C 30.445009 35.258084 30.603781 35.200359 30.738281 35.417969 C 30.784981 35.493369 30.756128 35.597657 30.673828 35.648438 C 30.566388 35.714837 30.584734 35.764479 30.740234 35.824219 C 30.961494 35.909219 31.189854 35.694977 31.121094 35.466797 C 31.076505 35.31891 30.508604 35.006936 30.240234 34.947266 C 30.294246 34.881206 30.353177 34.819297 30.410156 34.755859 C 30.410156 34.755859 30.412109 34.755859 30.412109 34.755859 C 30.581643 34.5672 30.761125 34.388229 30.955078 34.224609 C 31.146881 34.348377 31.406616 34.748211 31.476562 35.074219 C 31.522662 35.289249 31.613314 35.566533 31.677734 35.689453 C 31.827144 35.974423 32.075793 35.896698 32.126953 35.548828 C 32.148653 35.401498 32.209249 35.279297 32.261719 35.279297 C 32.314219 35.279297 32.457208 35.093334 32.580078 34.865234 L 32.804688 34.451172 L 32.445312 34.001953 C 32.188502 33.680093 32.061158 33.551791 31.898438 33.582031 C 31.891355 33.583345 31.88223 33.589887 31.875 33.591797 C 32.654393 33.169063 33.548909 32.929684 34.5 32.929688 z M 34.130859 33.796875 C 34.104959 33.793875 34.076428 33.807184 34.048828 33.833984 C 34.008128 33.874684 34.019266 33.978423 34.072266 34.064453 C 34.150066 34.189793 34.178883 34.189853 34.220703 34.064453 C 34.265503 33.930423 34.208459 33.804405 34.130859 33.796875 z M 31.53125 33.800781 C 31.492207 33.831321 31.448741 33.851869 31.40625 33.878906 C 31.446861 33.851287 31.489867 33.827331 31.53125 33.800781 z M 36.169922 34.169922 C 36.066502 34.169922 35.921103 34.286874 35.845703 34.427734 C 35.721093 34.660574 35.732384 34.670088 35.958984 34.548828 C 36.292064 34.370578 36.402812 34.169922 36.169922 34.169922 z M 4 34.929688 L 10 34.929688 L 10 39.9375 L 4 39.9375 L 4 34.929688 z M 53.111328 34.929688 L 55.884766 34.929688 L 55.884766 35.755859 L 55.884766 35.929688 C 55.884766 36.294264 55.989308 36.633391 56.160156 36.929688 L 52.839844 36.929688 C 53.010692 36.633391 53.115234 36.294264 53.115234 35.929688 A 0.50004997 0.50004997 0 0 0 53.115234 35.921875 L 53.111328 35.751953 L 53.111328 34.929688 z M 30.115234 35.113281 C 30.129868 35.14583 30.140018 35.177636 30.166016 35.208984 C 30.289996 35.358444 30.274522 35.388047 30.070312 35.373047 C 30.018936 35.369161 29.984077 35.351035 29.951172 35.333984 C 30.002799 35.258152 30.059974 35.186319 30.115234 35.113281 z M 32.705078 35.199219 C 32.511678 35.199219 32.462986 35.308689 32.597656 35.443359 C 32.689856 35.535559 32.888672 35.433712 32.888672 35.294922 C 32.888672 35.242622 32.806808 35.199219 32.705078 35.199219 z M 39.019531 35.294922 C 39.054643 35.345523 39.087659 35.397395 39.121094 35.449219 A 5.9737996 5.9737996 0 0 0 39.019531 35.294922 z M 33.341797 35.972656 C 33.305897 35.967656 33.259807 36.003825 33.185547 36.078125 C 32.986077 36.277695 32.954349 36.442848 33.136719 36.330078 C 33.204519 36.288178 33.259556 36.324756 33.259766 36.410156 C 33.259876 36.516906 33.299159 36.52507 33.386719 36.4375 C 33.456819 36.3675 33.4804 36.218812 33.4375 36.107422 C 33.4041 36.020422 33.377697 35.976886 33.341797 35.972656 z M 35.607422 36.699219 C 35.688722 36.648919 35.844809 37.028369 35.849609 37.287109 C 35.850459 37.337809 35.802237 37.378906 35.742188 37.378906 C 35.603498 37.378906 35.483672 36.775719 35.607422 36.699219 z M 35.0625 36.720703 C 35.1483 36.726703 35.192362 36.787277 35.201172 36.904297 C 35.210172 37.030077 35.208313 37.124838 35.195312 37.117188 C 35.182613 37.109188 35.075801 37.077975 34.957031 37.046875 C 34.677281 36.973775 34.680351 36.806322 34.962891 36.732422 C 35.000691 36.722422 35.0339 36.718703 35.0625 36.720703 z M 33.984375 36.835938 C 34.086335 36.831937 34.171538 36.869591 34.205078 36.957031 C 34.242078 37.053631 34.377369 37.132812 34.505859 37.132812 C 34.634309 37.132812 34.740234 37.187879 34.740234 37.255859 C 34.740234 37.323659 34.827774 37.378906 34.933594 37.378906 C 35.039394 37.378906 35.090778 37.433963 35.048828 37.501953 C 35.006928 37.569753 34.753778 37.625 34.486328 37.625 C 34.218878 37.625 34 37.570043 34 37.501953 C 34 37.434153 33.85953 37.378906 33.6875 37.378906 C 33.41985 37.378906 33.392097 37.346347 33.498047 37.148438 C 33.598597 36.960577 33.814405 36.841608 33.984375 36.835938 z M 39.580078 36.886719 C 39.530778 36.887309 39.426096 37.026193 39.347656 37.195312 C 39.269156 37.364483 39.246305 37.501953 39.296875 37.501953 C 39.347475 37.501953 39.452007 37.363049 39.529297 37.193359 C 39.606697 37.023769 39.629588 36.886719 39.580078 36.886719 z M 34.998047 37.888672 C 35.018918 37.883642 35.09695 37.994906 35.1875 38.162109 C 35.29187 38.354709 35.354382 38.53451 35.326172 38.5625 C 35.271572 38.6171 34.983778 38.043154 34.992188 37.896484 C 34.992529 37.891367 34.995622 37.890169 34.998047 37.888672 z M 53.376953 37.929688 L 54 37.929688 L 54 38.929688 L 53.376953 38.929688 L 53.376953 37.929688 z M 55 37.929688 L 55.376953 37.929688 L 55.376953 51.029297 L 13.376953 51.029297 L 13.376953 38.5 L 15.376953 38.5 L 15.376953 48.515625 A 0.50005 0.50005 0 0 0 15.876953 49.015625 L 52.876953 49.015625 A 0.50005 0.50005 0 0 0 53.376953 48.515625 L 53.376953 39.929688 L 54.5 39.929688 A 0.50005 0.50005 0 0 0 55 39.429688 L 55 37.929688 z M 30.382812 38.492188 C 30.294512 38.493038 30.310575 38.541361 30.421875 38.613281 C 30.658935 38.766461 30.702112 38.766461 30.607422 38.613281 C 30.565522 38.545281 30.463642 38.492188 30.382812 38.492188 z M 37.777344 39.025391 C 37.733044 39.017391 37.701172 39.045809 37.701172 39.099609 C 37.701172 39.171309 37.758302 39.230469 37.826172 39.230469 C 37.894072 39.230469 37.949219 39.206181 37.949219 39.175781 C 37.949219 39.145781 37.893972 39.086792 37.826172 39.044922 C 37.809172 39.034322 37.792044 39.027891 37.777344 39.025391 z M 38.482422 39.03125 C 38.47158 39.031393 38.458204 39.037756 38.441406 39.046875 C 38.374206 39.088275 38.318359 39.174431 38.318359 39.238281 C 38.318359 39.415801 38.406231 39.375939 38.488281 39.162109 C 38.519781 39.080409 38.516322 39.03226 38.482422 39.03125 z M 38.857422 39.529297 C 38.856832 39.535297 38.862847 39.549112 38.873047 39.570312 C 38.916047 39.655112 38.892212 39.724609 38.820312 39.724609 C 38.748413 39.724609 38.689453 39.786208 38.689453 39.861328 C 38.689453 39.936128 38.77328 39.964971 38.875 39.925781 C 38.97681 39.886981 39.058594 39.908509 39.058594 39.974609 C 39.058594 40.040609 39.087194 40.09375 39.121094 40.09375 C 39.241394 40.09375 39.179791 39.89247 38.988281 39.65625 C 38.908181 39.55725 38.858982 39.510417 38.857422 39.529297 z M 38.226562 39.623047 C 38.183063 39.628047 38.261963 39.78505 38.476562 40.0625 C 38.542162 40.1473 38.643995 40.216797 38.703125 40.216797 C 38.762225 40.216797 38.690489 40.079836 38.542969 39.910156 C 38.369219 39.710336 38.260423 39.619627 38.226562 39.623047 z M 35.595703 40.167969 C 35.576803 40.163969 35.553137 40.168038 35.523438 40.179688 C 35.432238 40.214787 35.357422 40.350016 35.357422 40.478516 C 35.357422 40.814366 35.565583 40.765723 35.632812 40.414062 C 35.663312 40.254313 35.652603 40.177389 35.595703 40.167969 z M 4 40.9375 L 10 40.9375 L 10 42.929688 L 4 42.929688 L 4 40.9375 z M 6.9648438 41.339844 A 0.50000155 0.50943583 0 0 0 6.5 41.849609 A 0.50000155 0.50943583 0 0 0 7 42.357422 A 0.50000155 0.50943583 0 0 0 7.5 41.849609 A 0.50000155 0.50943583 0 0 0 7 41.339844 A 0.50000155 0.50943583 0 0 0 6.9648438 41.339844 z M 45.697266 42.003906 L 45.697266 42.542969 C 46.561976 42.537879 47.395396 42.880578 48.009766 43.492188 C 48.590276 44.074937 48.927978 44.855581 48.955078 45.675781 L 49.494141 45.677734 C 49.466651 44.714714 49.070112 43.795528 48.388672 43.111328 C 47.673682 42.397908 46.704766 41.998906 45.697266 42.003906 z M 23.074219 42.929688 C 22.840769 42.920687 22.603614 42.952197 22.371094 43.029297 C 21.441044 43.337617 20.869221 44.280777 21.025391 45.248047 C 21.181591 46.215307 22.02018 46.927744 23 46.927734 A 0.250025 0.250025 0 1 0 23 46.427734 C 22.26205 46.427744 21.637171 45.896419 21.519531 45.167969 C 21.401921 44.439509 21.826884 43.736116 22.527344 43.503906 C 23.227814 43.271686 23.989178 43.581908 24.330078 44.236328 C 24.652258 44.854838 24.493083 45.592522 23.976562 46.044922 C 23.961163 46.027722 23.949219 46.005916 23.949219 45.978516 L 23.949219 45.873047 A 0.25025435 0.25025435 0 0 0 23.949219 45.859375 A 0.250025 0.250025 0 0 0 23.949219 45.847656 A 0.25025435 0.25025435 0 0 0 23.949219 45.841797 L 23.949219 45.546875 A 0.250025 0.250025 0 0 0 23.949219 45.521484 L 23.949219 44.369141 A 0.25025002 0.25025002 0 0 0 23.949219 44.34375 L 23.949219 44.052734 A 0.250025 0.250025 0 0 0 23.695312 43.798828 A 0.250025 0.250025 0 0 0 23.455078 43.996094 C 23.325038 43.973594 23.192783 43.973494 23.064453 43.996094 C 22.810583 44.040794 22.571874 44.172319 22.396484 44.380859 C 22.045754 44.797909 22.045754 45.411075 22.396484 45.828125 C 22.670084 46.153425 23.096854 46.282506 23.496094 46.197266 C 23.570294 46.381536 23.733991 46.512677 23.931641 46.554688 A 0.25059175 0.25059175 0 0 0 24.148438 46.560547 A 0.250025 0.250025 0 0 0 24.166016 46.552734 A 0.25059175 0.25059175 0 0 0 24.171875 46.548828 A 0.250025 0.250025 0 0 0 24.173828 46.546875 A 0.25059175 0.25059175 0 0 0 24.1875 46.539062 A 0.250025 0.250025 0 0 0 24.248047 46.486328 C 24.988767 45.892368 25.215028 44.851656 24.773438 44.003906 C 24.433947 43.352176 23.774579 42.956768 23.074219 42.929688 z M 45.699219 43.082031 L 45.701172 43.619141 C 46.280402 43.613561 46.83936 43.841323 47.25 44.251953 C 47.62869 44.632003 47.852706 45.137205 47.878906 45.671875 L 48.417969 45.673828 C 48.391179 44.996338 48.108056 44.353004 47.628906 43.871094 C 47.116396 43.360064 46.421139 43.077031 45.699219 43.082031 z M 45.703125 44.091797 L 45.703125 44.630859 C 45.974805 44.641259 46.233091 44.754576 46.425781 44.947266 C 46.617971 45.140286 46.730034 45.398352 46.740234 45.669922 L 47.279297 45.671875 C 47.268667 45.257475 47.100441 44.862159 46.806641 44.568359 C 46.512581 44.274519 46.117725 44.102797 45.703125 44.091797 z M 23.150391 44.486328 C 23.249291 44.469128 23.350699 44.485818 23.449219 44.517578 L 23.449219 45.529297 A 0.250025 0.250025 0 0 0 23.449219 45.546875 L 23.449219 45.689453 C 23.210229 45.766653 22.946597 45.704859 22.779297 45.505859 C 22.582647 45.272039 22.582647 44.934992 22.779297 44.701172 C 22.877597 44.584242 23.009401 44.510858 23.150391 44.486328 z M 45.785156 45.1875 A 0.40481389 0.40281641 45 0 0 45.494141 45.304688 A 0.40481389 0.40281641 45 0 0 45.496094 45.876953 A 0.40481389 0.40281641 45 0 0 46.068359 45.878906 A 0.40481389 0.40281641 45 0 0 46.066406 45.306641 A 0.40481389 0.40281641 45 0 0 45.785156 45.1875 z M 10.476562 52.029297 L 29.376953 52.029297 L 29.376953 52.857422 C 29.376953 53.852742 30.174782 54.683594 31.164062 54.683594 L 37.591797 54.683594 C 38.581077 54.683594 39.376953 53.852732 39.376953 52.857422 L 39.376953 52.029297 L 58.277344 52.029297 C 58.020634 54.264137 56.213307 56 53.904297 56 L 14.849609 56 C 12.540549 56 10.733223 54.264197 10.476562 52.029297 z M 30.376953 52.029297 L 38.376953 52.029297 L 38.376953 52.857422 C 38.376953 53.332912 38.027087 53.683594 37.591797 53.683594 L 31.164062 53.683594 C 30.728782 53.683594 30.376953 53.332902 30.376953 52.857422 L 30.376953 52.029297 z " transform="translate(-257,428.3622)" id="circle17881"/>
    </g>
  </g>

	
	
	<metadata>
		<rdf:RDF xmlns:rdf="http://www.w3.org/1999/02/22-rdf-syntax-ns#" xmlns:rdfs="http://www.w3.org/2000/01/rdf-schema#" xmlns:dc="http://purl.org/dc/elements/1.1/">
			<rdf:Description about="https://iconscout.com/legal#licenses" dc:title="Data, Synchronization, Cloud, Web, Mobile, Computer, Optimization" dc:description="Data, Synchronization, Cloud, Web, Mobile, Computer, Optimization" dc:publisher="Iconscout" dc:date="2016-12-14" dc:format="image/svg+xml" dc:language="en">
				<dc:creator>
					<rdf:Bag>
						<rdf:li>Chamestudio</rdf:li>
					</rdf:Bag>
				</dc:creator>
			</rdf:Description>
		</rdf:RDF>
    </metadata></svg>
